<svg width="1277" height="335" viewBox="0 0 1277 335" fill="none" xmlns="http://www.w3.org/2000/svg">
<g clip-path="url(#clip0_139_2)">
<path d="M519.8 93.7C518.6 93.8 517.3 94 516.1 94.1C508.7 94.8 501.5 95.2 494.8 95.2C477 95.2 468.1 92.6 465.8 90.9C466.2 90.5 467 89.8 468.3 88.9C480.3 81.1 492.9 72.7 507.9 62.7L510.8 60.8L508 53.9L504.6 54.5C502.1 54.9 499.3 56.6 494.6 59.4C485.3 65 467.9 75.3 437.2 84.7H437.1C392.4 99.2 319.1 111.7 206.5 124.2L202.8 124.6L202.5 132.5L206.1 133.2C206.7 133.3 207.4 133.4 208.3 133.4C210.4 133.4 213.6 133.1 217.7 132.7C223.7 132.2 231.2 131.5 237.8 131.5C244.8 131.5 247.8 132.3 249.1 132.8C247.1 135 238 142.6 203.9 150.8C169.6 159.1 123.2 164.8 66.0999 167.9L62.4 168.1L61.7 176L65.4 176.9C66.2 177.1 67.6999 177.3 72.1999 177.3C89.3999 177.3 144.4 174.1 203.1 168C212.1 167.2 221.3 166.4 229.4 165.6C257.9 163 284.8 160.5 305.8 160.5C332.6 160.5 340.4 164.7 342.3 168.2L342.4 168.4L342.5 168.6C358.1 192.6 416.6 244.8 448 272.8C456.1 280 463.7 286.8 465.3 288.5L465.7 289.3L468.8 290.9L474.9 288.2L473.4 284.4C472.9 283.2 472.4 282.6 467.8 277.7C456.4 265.2 426 232.1 412.9 202C405.5 184.4 405 170.3 411.4 159C416.8 149.4 427.4 141.2 443.1 134.5C459.2 127.6 481.3 122 508.7 118C570.3 110.4 684.9 96.3 779.4 95.4H779.5C787 95.2 794.6 95.2 802.1 95.2C839.9 95.2 875.5 97.3 902.3 101.1C937 106 942.2 111.4 942.6 111.9C951 134.5 957.9 166.1 960.8 180.1C884.7 169.6 806.7 153.2 731.2 137.2C693.3 129.2 654.2 120.9 615.5 113.5C615.1 113.4 614.7 113.3 614.3 113.3L610.2 113L609 121.6L613.4 122.5C618.2 123.7 631.4 129.4 632 137.8C632.5 143.6 626.9 159.9 565.3 185.5C541 195 522.4 203.8 510.1 211.8C496.5 220.6 489.9 228.8 490 236.7C490.1 247.3 501.8 252.6 508 255L507.6 256.8H512.2C516.1 258.5 528 262.3 558.9 264.7C571.5 265.5 584.3 265.9 598.1 265.9C649.8 265.9 713 260 786 248.5C888.2 232 956.8 223.9 995.9 223.9C1021.1 223.9 1031.2 227.1 1040.9 230.2C1044.4 231.3 1047.8 232.4 1051.8 233.3L1061.1 235.4L1056.9 226.8C1052.2 217.3 1047.4 207 1042.6 196.2C1040.8 192.2 1039 188.2 1037.3 184.2C1029.3 165.8 1021 145.6 1012.7 124.1C1012.4 123.4 1012.5 123 1012.9 122.4C1016 117.9 1031.8 113 1059.3 113C1079.6 113 1103.2 115.6 1127.6 120.5C1168.5 128.4 1208.3 138.9 1246.1 151.7L1250.2 153.1L1253.2 144.5L1249.1 143.1C1118.4 97.8 974.3 75.7 808.5 75.7C722.4 75.5 628 81.5 519.8 93.7ZM902.9 194.3C901.4 195.3 897.9 197.1 889.4 199.5C881.1 201.8 869.9 204.3 855.2 206.9C828 211.7 793.7 216.3 763.5 220.3L760.8 220.7C751.3 222 742.4 223.2 733.8 224.3C707.5 227.6 683 229.3 662.8 229.3C648.2 229.3 635.9 228.4 627.1 226.7C617.1 224.7 614.9 222.4 614.6 221.9C614.8 221.4 616.1 219.2 622.4 215.8C626 213.8 630.6 211.3 635.8 208.5L636.2 208.3C661.6 194.5 700 173.7 714.6 164.3C718.2 162 720.4 159.5 721.2 157C763.3 165.6 814.1 176 862.7 184.4H862.8C875.7 186.4 885.8 188.5 893 190.5C898.8 192.1 901.6 193.5 902.9 194.3Z" fill="white"/>
<path d="M1276.7 167.2L1276.8 163H1276.5C1276.4 162.2 1276.3 161.4 1276.2 160.6C1274.8 151.2 1270.6 142 1263.9 133.4C1245.7 109.7 1212.2 93.1 1185.1 81.3H1185C1150.8 66.9 1113.3 55.3 1063.1 43.5C988.7 26.6 906.3 14.7 811.2 7.2C747.2 2.4 683.1 0 620.9 0C541.7 0 463.1 3.9 387.2 11.7C291.5 22.4 189.9 37.6 95.9 75.5H95.8C55.1 93 0.8 121.5 0 167.1V167.3C0.6 192.8 18.2 216.3 52.6 237.3C79.7 253.8 111.6 265.5 136.3 273.9C183.5 289.3 236.4 301.3 302.8 311.8C402.8 326.8 509 334.4 618.6 334.4H622.9C683.7 334.3 747.1 331.9 811.2 327.1C906.4 319.6 988.7 307.8 1063.1 290.8C1113.3 279.1 1150.9 267.4 1185 253.1H1185.1C1222.7 236.7 1272.3 210.6 1276.5 171.5H1276.9L1276.7 167.2ZM1256.6 139C1262.4 146.5 1265.9 154.3 1267.1 162C1267.4 163.7 1267.5 165.5 1267.6 167.2C1266.6 203.7 1217.9 228.8 1181.3 244.5C1113.8 272.3 1040.6 286.3 978 296.4C880 311.4 775.7 318.7 659.3 318.7C653.2 318.7 647.2 318.7 641.6 318.6C489.5 316 311.3 306.2 143 253.2C121.2 245.9 102.4 238.4 85.6 230.1C58.6 216.5 22.7 195.2 22.1 167.1C22.5 152.5 32.6 137.9 52 123.7C72.3 108.9 102.9 94.5 143 80.9C256.1 44.2 373.3 30.9 473.1 22.6C536.8 17.8 600.4 15.4 662.3 15.4H665C742.8 15.5 819.9 19.4 894.3 27C955.1 33.3 1009.5 41.9 1060.8 53.2C1122.5 67.3 1173 82.1 1218.7 108C1231 115.8 1246.5 125.9 1256.6 139Z" fill="white"/>
</g>
<defs>
<clipPath id="clip0_139_2">
<rect width="1276.9" height="334.4" fill="white"/>
</clipPath>
</defs>
</svg>
