<svg width="300" height="300" viewBox="0 0 300 300" fill="none" xmlns="http://www.w3.org/2000/svg">
<rect width="300" height="300" rx="101" fill="#0F0F0F"/>
<path d="M224.631 194.61L223.55 120.145C223.296 102.688 235.517 87.5436 252.586 84.1712L280 78.7509L118.41 83.0063C118.129 83.0116 117.853 83.0116 117.578 83.0063C108.69 82.6658 103.391 72.8252 107.509 64.9101L117.339 46C114.87 47.3937 99.9993 89.2192 50.0998 63.4845C52.3414 64.7611 85.3411 85.1127 14 133.497C16.708 131.763 75.0019 97.2779 77.0316 133.289C79.2679 172.987 96.8567 250.766 97.0952 252.122C96.9097 249.915 68.1497 98.9588 114.96 95.2832C147.207 92.7512 210.169 81.4424 210.689 106.252C211.34 137.407 210.222 187.695 210.222 187.695L137.472 107.076C138.108 107.821 151.96 129.864 123.672 166.445C94.8377 203.717 108.659 220.201 108.659 220.201C108.659 220.201 114.663 237.904 167.943 226.691C221.224 215.478 219.994 237.244 225.49 254L224.859 210.632L224.631 194.61ZM157.832 209.472C136.306 213.121 125.961 202.334 134.069 188.243C139.157 179.402 152.167 157.928 156.528 149.082C159.136 143.79 157.159 140.603 157.159 140.603L188.224 174.673L188.246 174.7C213.46 203.222 178.961 205.898 157.827 209.478L157.832 209.472Z" fill="#FFFCEB"/>
</svg>
