<?xml version="1.0" encoding="UTF-8"?>
<svg id="Capa_2" xmlns="http://www.w3.org/2000/svg" viewBox="0 0 69.15 46.38">
  <defs>
    <style>
      .cls-1 {
        fill: #E6E2D2;
      }
    </style>
  </defs>
  <g id="Capa_1-2" data-name="Capa_1">
    <path class="cls-1" d="M36.11,4.76c3.48,6.82,9.39,8.39,14.08,8.39,1.9,0,3.7-.26,5.21-.59-.8,2.68-.74,5.25.19,7.68,1.35,3.52,4.3,6.04,7.05,7.72-3.66,1.07-7.84,3.07-9.56,6.77-.92,1.98-1.03,4.17-.32,6.55-4.56-1.89-11.42-4.1-18.63-4.1-5.53,0-10.37,1.3-14.47,3.86-.07-1.05-.33-2.17-.9-3.27-1.62-3.18-5.28-5.36-10.9-6.53.44-.49.81-1.04,1.09-1.64,1.17-2.47.64-5.24-.17-7.38.09,0,.18,0,.27,0,3.39,0,5.9-1.11,7.45-3.3,1.35-1.91,1.67-4.27,1.59-6.38,1.72.93,3.47,1.39,5.23,1.39,5.93,0,10.34-5.29,12.78-9.16M36.41,0s-5.14,11.92-13.08,11.92c-2.47,0-5.21-1.15-8.15-4.17,0,0,4.42,12.47-6.12,12.47-1.09,0-2.33-.13-3.76-.42,0,0,7.87,11.41-5.31,12.53,24.77,1.14,16.3,14.06,16.3,14.06,5.14-5.43,11.59-7.21,17.85-7.21,11.93,0,23.13,6.47,23.13,6.47-10.91-15.14,11.88-16.88,11.88-16.88,0,0-18.55-5.57-10.08-19.44,0,0-4.09,1.82-8.88,1.82-5.21,0-11.25-2.15-13.78-11.14h0Z"/>
  </g>
</svg>